PathFileType	4	(X/Y/Z)	/Users/itak/Documents/Research/Walk-IL/dataset/trc/00184_00008.trc
DataRate	CameraRate	NumFrames	NumMarkers	Units	OrigDataRate	OrigDataStartFrame	OrigNumFrames
100.000000	100.000000	4	53	mm	100.000000	591	789
Frame#	Time	RPSI			LPSI			L3			STRN			T10			C7			CLAV			RBAK			LBAK			LSHO			LUPA			LAEL			LAOL			LWTS			LWPS			LFRA			LIFD			LHPS			LHTS			RSHO			RUPA			RAEL			RAOL			RWTS			RWPS			RFRA			RIFD			RHTS			RHPS			RBHD			LFHD			RFHD			LBHD			LHIP			RHIP			RASI			LASI			LKNE			LTHI			LANK			LTIP			LTOE			LMT1			LMT5			LHEE			RKNE			RTHI			RANK			RTIP			RTOE			RMT1			RMT5			RHEE			
		X1	Y1	Z1	X2	Y2	Z2	X3	Y3	Z3	X4	Y4	Z4	X5	Y5	Z5	X6	Y6	Z6	X7	Y7	Z7	X8	Y8	Z8	X9	Y9	Z9	X10	Y10	Z10	X11	Y11	Z11	X12	Y12	Z12	X13	Y13	Z13	X14	Y14	Z14	X15	Y15	Z15	X16	Y16	Z16	X17	Y17	Z17	X18	Y18	Z18	X19	Y19	Z19	X20	Y20	Z20	X21	Y21	Z21	X22	Y22	Z22	X23	Y23	Z23	X24	Y24	Z24	X25	Y25	Z25	X26	Y26	Z26	X27	Y27	Z27	X28	Y28	Z28	X29	Y29	Z29	X30	Y30	Z30	X31	Y31	Z31	X32	Y32	Z32	X33	Y33	Z33	X34	Y34	Z34	X35	Y35	Z35	X36	Y36	Z36	X37	Y37	Z37	X38	Y38	Z38	X39	Y39	Z39	X40	Y40	Z40	X41	Y41	Z41	X42	Y42	Z42	X43	Y43	Z43	X44	Y44	Z44	X45	Y45	Z45	X46	Y46	Z46	X47	Y47	Z47	X48	Y48	Z48	X49	Y49	Z49	X50	Y50	Z50	X51	Y51	Z51	X52	Y52	Z52	X53	Y53	Z53	

592	5.91	-773.4002685546875	1045.116943359375	-195.3306732177734	-655.4405517578125	1042.645385742188	-163.0636444091797	-713.68798828125	1081.414306640625	-179.3638305664062	-768.1511840820312	1296.223754882812	74.94346618652344	-679.8681030273438	1241.693725585938	-209.3215789794922	-671.5741577148438	1509.467407226562	-138.7864227294922	-745.0009155273438	1409.67138671875	51.87482070922852	-763.60693359375	1341.472412109375	-238.7917175292969	-576.3645629882812	1480.485107421875	-114.5913009643555	-528.4366455078125	1465.89697265625	-16.72969627380371	-457.0624084472656	1329.737548828125	-15.47204875946045	-461.0599975585938	1116.007080078125	36.51993560791016	-516.9485473632812	1090.182006835938	-28.89013481140137	-560.9545288085938	946.9282836914062	203.2593231201172	-507.8986206054688	890.4862060546875	151.1611785888672	-470.7543640136719	1014.529968261719	87.71200561523438	-623.0016479492188	789.306884765625	278.5913696289062	-530.299560546875	837.1201171875	195.3513031005859	-558.3006591796875	878.7322387695312	248.1644287109375	-861.4558715820312	1500.372314453125	-136.9089660644531	-920.644775390625	1440.650146484375	-182.0902404785156	-993.7119140625	1164.960693359375	-241.8345794677734	-904.520263671875	1146.5244140625	-206.2403564453125	-1067.687622070312	954.8758544921875	-93.37302398681641	-1077.961669921875	930.6700439453125	-179.2809448242188	-1030.893188476562	1095.55712890625	-224.3872528076172	-1069.312622070312	770.3572387695312	-49.84506607055664	-1097.845703125	866.3047485351562	-64.98976135253906	-1097.031616210938	852.0162353515625	-144.6725616455078	-775.7527465820312	1684.295043945312	-49.77764892578125	-634.0797119140625	1689.24609375	115.4316329956055	-761.6337280273438	1696.825805664062	125.2384414672852	-639.9917602539062	1685.703857421875	-64.61563110351562	-571.8818359375	974.520751953125	-34.12866592407227	-933.4342041015625	1015.680725097656	-74.27017211914062	-896.8905029296875	1046.833129882812	14.95766925811768	-647.5407104492188	1023.033020019531	74.86348724365234	-700.1119384765625	484.2431335449219	-9.882376670837402	-647.8467407226562	622.9994506835938	-4.216254711151123	-760.7649536132812	40.16915130615234	-133.3523864746094	-721.5099487304688	257.84619140625	-61.94292449951172	-816.6909790039062	40.62808609008789	79.37006378173828	-858.4397583007812	40.50485992431641	22.7553825378418	-738.9943237304688	38.2376708984375	-20.43067741394043	-819.1844482421875	40.16163635253906	-194.7419891357422	-996.6732177734375	550.0820922851562	113.6281280517578	-985.67578125	814.2891235351562	34.30310440063477	-1017.620361328125	75.24671936035156	-50.20474243164062	-1001.505249023438	426.6021728515625	114.5398254394531	-1076.464965820312	71.17356109619141	161.7546539306641	-1010.69140625	71.29636383056641	134.9171752929688	-1090.950927734375	64.86463928222656	38.49200057983398	-937.4581298828125	74.60478210449219	-69.30071258544922	
593	5.92	-777.039794921875	1044.377075195312	-188.3352508544922	-658.5453491210938	1041.833374023438	-158.0549926757812	-716.9501342773438	1080.68310546875	-173.4034881591797	-767.8646850585938	1295.464111328125	82.20229339599609	-683.3660888671875	1241.282836914062	-203.5123138427734	-674.3001708984375	1508.678100585938	-132.3928985595703	-745.272705078125	1409.10302734375	59.06998062133789	-767.5667724609375	1340.997436523438	-231.5864715576172	-578.5697631835938	1480.072265625	-109.5473480224609	-529.490234375	1465.43701171875	-12.29134273529053	-458.3509216308594	1329.220092773438	-11.10058403015137	-462.971435546875	1115.725952148438	42.62229156494141	-519.1177368164062	1089.654052734375	-22.59230422973633	-563.510986328125	948.4346923828125	210.8155822753906	-510.5146789550781	891.365478515625	159.3168640136719	-472.9737243652344	1014.701049804688	94.66638946533203	-626.0971069335938	791.7127685546875	287.5853576660156	-533.2553100585938	838.4288940429688	203.9972839355469	-561.07080078125	880.6849975585938	256.3663940429688	-864.0740966796875	1499.664428710938	-128.1179504394531	-923.8621215820312	1440.00146484375	-172.50927734375	-997.9518432617188	1164.552490234375	-231.6735382080078	-908.6646118164062	1145.788696289062	-197.2108154296875	-1070.22119140625	953.7395629882812	-83.43975067138672	-1081.662841796875	930.1104125976562	-169.4430236816406	-1034.95849609375	1095.189819335938	-214.0985717773438	-1071.62744140625	768.930419921875	-41.22772598266602	-1100.234741210938	864.9993896484375	-55.37520980834961	-1100.362548828125	851.2546997070312	-135.1203765869141	-777.347412109375	1683.435302734375	-42.48665237426758	-634.5145263671875	1688.557495117188	121.6149978637695	-762.0222778320312	1695.95166015625	132.3859710693359	-641.7564697265625	1685.08349609375	-58.39131164550781	-572.9993286132812	973.9020385742188	-30.46416282653809	-935.1712036132812	1015.160461425781	-64.43035125732422	-896.9739379882812	1046.36328125	23.98064994812012	-646.6378173828125	1022.431274414062	79.9405517578125	-699.9862060546875	483.7635498046875	-7.930740356445312	-648.0604858398438	622.5902709960938	-1.595158457756042	-760.8154296875	40.16249465942383	-133.3058013916016	-721.560546875	257.7002868652344	-61.14969635009766	-816.7489624023438	40.50865173339844	79.43051910400391	-858.5328979492188	40.38773727416992	22.69138336181641	-738.9160766601562	38.11019897460938	-20.44356536865234	-819.2097778320312	40.32136535644531	-194.7036895751953	-994.18994140625	550.9091796875	127.5021896362305	-984.9911499023438	814.1296997070312	46.03110504150391	-1025.711669921875	70.42156219482422	-17.77878379821777	-1000.044372558594	427.7196350097656	132.5465850830078	-1076.317016601562	74.99740600585938	196.268310546875	-1011.698852539062	73.44718170166016	166.7802581787109	-1095.732666015625	64.11439514160156	73.99288177490234	-946.468994140625	68.47609710693359	-40.00057983398438	
594	5.93	-780.6199340820312	1043.525756835938	-181.1886749267578	-661.5952758789062	1040.938842773438	-152.9074859619141	-720.1483764648438	1079.886840820312	-167.3453826904297	-767.5667724609375	1294.636108398438	89.42153930664062	-686.8385009765625	1240.780029296875	-197.6408843994141	-676.9769897460938	1507.854370117188	-125.9773712158203	-745.5441284179688	1408.461303710938	66.26661682128906	-771.5039672851562	1340.430786132812	-224.3323669433594	-580.7625122070312	1479.540893554688	-104.4799499511719	-530.5374145507812	1464.872802734375	-7.824660778045654	-459.6424255371094	1328.582763671875	-6.772732734680176	-464.8491516113281	1115.3076171875	48.5847282409668	-521.3146362304688	1089.037841796875	-16.42508506774902	-565.9232177734375	949.5962524414062	218.0878601074219	-512.9617309570312	891.9901733398438	167.0871276855469	-475.113037109375	1014.703552246094	101.3779983520508	-628.9645385742188	793.659912109375	296.0921020507812	-535.991943359375	839.4293823242188	212.1925506591797	-563.6474609375	882.2378540039062	264.1806030273438	-866.6456298828125	1498.874267578125	-119.2902679443359	-927.0272827148438	1439.269409179688	-162.8896942138672	-1002.095458984375	1164.0537109375	-221.4678192138672	-912.6363525390625	1144.986328125	-188.1758117675781	-1072.657348632812	952.464111328125	-73.55457305908203	-1085.256713867188	929.439697265625	-159.6449737548828	-1038.923950195312	1094.738403320312	-203.7881774902344	-1073.880493164062	767.3673095703125	-32.7366943359375	-1102.519775390625	863.5476684570312	-45.84115219116211	-1103.593139648438	850.3717041015625	-125.636848449707	-778.8859252929688	1682.49951171875	-35.14726638793945	-634.8983154296875	1687.747436523438	127.8426055908203	-762.3515014648438	1694.96923828125	139.5937805175781	-643.4852294921875	1684.368286132812	-52.11858367919922	-574.0974731445312	973.2807006835938	-26.61080360412598	-936.8758544921875	1014.515502929688	-54.59222030639648	-897.0991821289062	1045.785522460938	32.95730209350586	-645.8312377929688	1021.793395996094	85.15482330322266	-699.8914184570312	483.2572326660156	-5.821285247802734	-648.267578125	622.1608276367188	1.204767107963562	-760.8477172851562	40.15934371948242	-133.2700958251953	-721.5924682617188	257.5514831542969	-60.27651214599609	-816.8276977539062	40.37452697753906	79.48487091064453	-858.6419067382812	40.25591659545898	22.60877227783203	-738.8336181640625	37.96543884277344	-20.47263717651367	-819.2202758789062	40.49711608886719	-194.6650695800781	-991.6246337890625	551.6004638671875	141.0697937011719	-984.2477416992188	813.8181762695312	57.5783805847168	-1032.375366210938	66.26190185546875	14.68405437469482	-998.2075805664062	428.7995300292969	150.2798004150391	-1074.70263671875	79.10225677490234	230.1550903320312	-1011.360290527344	75.91535186767578	198.1571502685547	-1098.98779296875	63.87528991699219	109.1861038208008	-954.177490234375	63.07411575317383	-10.55190181732178	
595	5.94	-784.1226196289062	1042.536254882812	-173.9054107666016	-664.5745849609375	1039.958618164062	-147.6314544677734	-723.2763061523438	1079.023193359375	-161.1817474365234	-767.2416381835938	1293.72705078125	96.59555053710938	-690.280029296875	1240.186645507812	-191.6998138427734	-679.6051025390625	1506.998413085938	-119.5379486083984	-745.7944946289062	1407.730834960938	73.44560241699219	-775.4071655273438	1339.774536132812	-217.0254516601562	-582.9334106445312	1478.882202148438	-99.38627624511719	-531.5805053710938	1464.205444335938	-3.315848827362061	-460.9403076171875	1327.823608398438	-2.482985496520996	-466.6879272460938	1114.74560546875	54.39878082275391	-523.517333984375	1088.327880859375	-10.39008712768555	-568.1791381835938	950.4139404296875	225.0823974609375	-515.24609375	892.3449096679688	174.4670257568359	-477.171875	1014.523498535156	107.8414764404297	-631.5946044921875	795.1489868164062	304.1295471191406	-538.5103149414062	840.110595703125	219.9344024658203	-566.024169921875	883.3809814453125	271.6146240234375	-869.1670532226562	1498.001708984375	-110.4294662475586	-930.1322021484375	1438.452880859375	-153.2399749755859	-1006.128479003906	1163.466918945312	-211.2336273193359	-916.4274291992188	1144.1171875	-179.1456146240234	-1075.005737304688	951.0684814453125	-63.72159957885742	-1088.73974609375	928.6643676757812	-149.8820953369141	-1042.781860351562	1094.1943359375	-193.4650115966797	-1076.059204101562	765.682861328125	-24.34469413757324	-1104.695068359375	861.96533203125	-36.37240219116211	-1106.725463867188	849.3756713867188	-116.2088012695312	-780.3775024414062	1681.492919921875	-27.76395416259766	-635.2359619140625	1686.822265625	134.1156616210938	-762.625732421875	1693.879150390625	146.8724975585938	-645.1793823242188	1683.55859375	-45.79483795166016	-575.150390625	972.6597290039062	-22.56831169128418	-938.5498657226562	1013.762756347656	-44.74835205078125	-897.259033203125	1045.102172851562	41.90058898925781	-645.1221923828125	1021.12744140625	90.50774383544922	-699.8181762695312	482.7217407226562	-3.539886713027954	-648.462158203125	621.7119140625	4.188096523284912	-760.8616333007812	40.16299438476562	-133.2424774169922	-721.60546875	257.3968811035156	-59.29849243164062	-816.9170532226562	40.2354621887207	79.54273223876953	-858.7416381835938	40.13508605957031	22.5285472869873	-738.7418212890625	37.80889892578125	-20.5138111114502	-819.2268676757812	40.691162109375	-194.6275939941406	-989.033447265625	552.1720581054688	154.3435211181641	-983.486572265625	813.383544921875	68.96199035644531	-1037.58837890625	62.74214935302734	47.04817581176758	-996.05908203125	429.8462829589844	167.713134765625	-1071.689208984375	83.46056365966797	263.3260192871094	-1009.711853027344	78.68325805664062	228.9813842773438	-1100.727416992188	64.10257720947266	143.9467163085938	-960.5297241210938	58.38337707519531	18.9218578338623	
